<?xml version="1.0" standalone="no"?>
<!DOCTYPE svg PUBLIC "-//W3C//DTD SVG 20010904//EN"
 "http://www.w3.org/TR/2001/REC-SVG-20010904/DTD/svg10.dtd">
<svg version="1.0" xmlns="http://www.w3.org/2000/svg"
 width="330.000000pt" height="330.000000pt" viewBox="0 0 330.000000 330.000000"
 preserveAspectRatio="xMidYMid meet">
<metadata>
Created by potrace 1.11, written by Peter Selinger 2001-2013
</metadata>
<g transform="translate(0.000000,330.000000) scale(0.100000,-0.100000)"
fill="#000000" stroke="none">
<path d="M0 1650 l0 -1650 1650 0 1650 0 0 1650 0 1650 -1650 0 -1650 0 0
-1650z m1760 623 l0 -428 -214 214 c-217 217 -226 223 -226 158 0 -41 -47
-122 -99 -170 l-51 -48 0 -429 0 -428 58 -59 c44 -43 64 -72 77 -113 73 -219
-87 -432 -313 -418 -209 12 -346 225 -271 423 16 43 37 75 76 112 l53 52 0
432 0 431 -43 38 c-133 118 -142 320 -20 451 118 126 323 127 446 3 48 -49 76
-101 84 -159 3 -25 9 -47 13 -50 3 -2 100 90 216 206 115 115 210 209 211 209
2 0 3 -192 3 -427z m305 130 c165 -53 278 -161 332 -320 14 -41 17 -111 20
-498 l4 -450 35 -23 c111 -73 157 -257 96 -384 -106 -217 -409 -240 -541 -41
-87 131 -65 304 51 408 l49 44 -3 418 c-3 469 -4 470 -77 518 -27 18 -123 45
-158 45 -2 0 -3 71 -3 158 l0 158 73 -8 c39 -5 95 -16 122 -25z"/>
<path d="M932 2410 c-47 -29 -72 -76 -72 -136 0 -156 188 -209 284 -80 29 38
29 124 0 163 -53 72 -144 94 -212 53z"/>
<path d="M940 997 c-142 -75 -84 -292 77 -289 159 2 207 219 64 292 -52 26
-88 25 -141 -3z"/>
<path d="M2200 998 c-33 -17 -51 -35 -67 -68 -28 -55 -29 -82 -3 -136 50 -102
178 -118 255 -33 68 75 44 194 -49 238 -54 27 -81 26 -136 -1z"/>
</g>
</svg>
